<svg width="48" height="48" viewBox="0 0 48 48" fill="none" xmlns="http://www.w3.org/2000/svg">
<rect width="48" height="48" rx="10" fill="#FFFFFF"/>
<path d="M5.58213 -0.0228818C5.58213 -0.0228818 5.51715 12.3457 5.51537 15.1629C5.527 16.2856 5.57105 25.2066 5.59313 25.9649L5.63351 26.9719C5.64388 27.1525 5.66873 27.608 5.75302 28.0239C5.97923 29.1399 6.74597 31.3404 7.88847 33.6406C9.0461 35.9712 10.8161 38.872 13.266 41.0798C15.4227 43.0234 17.6375 44.5085 19.2932 45.5022C20.1273 46.0028 23.6383 47.7121 24.1481 47.9771C23.999 47.9043 24.4033 48.1098 24.1481 47.9771C24.1033 47.9558 24.2226 48.0135 24.1481 47.9771C24.1335 47.9703 24.1705 47.9877 24.1481 47.9771C24.1181 47.9946 24.1652 47.9672 24.1481 47.9771C24.3642 47.8497 27.2438 46.1757 27.2438 46.1757C27.2438 46.1757 29.0332 45.0639 30.1812 44.2897C32.388 42.8015 35.3318 40.646 37.317 38.4246C41.2458 34.0286 41.9169 30.3577 42.1805 29.0249C42.2896 28.3951 42.4692 27.6666 42.4768 27.2201C42.4871 26.6234 42.4879 19.7664 42.4754 19.1675L29.7618 19.1591L21.4989 27.3883L34.0874 27.3737C34.0802 27.5704 34.0727 27.6463 34.0764 27.6351C33.9878 28.0889 33.8875 28.624 33.5533 29.4044C33.1942 30.2433 32.5178 31.4585 31.186 32.9487C29.9284 34.3558 27.719 36.0357 25.5834 37.4759C24.9452 37.9063 24.343 38.2961 23.8166 38.6283C22.4604 37.8143 20.4203 36.4613 18.7708 34.9748C17.4145 33.7525 16.1963 31.8857 15.2523 29.9853C14.7962 29.067 14.438 28.2098 14.1847 27.5276C14.0583 27.1872 13.9081 26.7159 13.8416 26.5007C13.8217 25.8189 13.7759 24.1156 13.7645 23.0105C13.7416 20.8056 13.7352 17.9734 13.737 15.1679C13.7385 12.6538 13.7473 10.1708 13.7558 8.19628L34.0808 8.19628L34.0792 14.6869L42.4329 6.32741L42.4338 -0.0228882L5.58213 -0.0228818Z" fill="#192F3F"/>
</svg>
