<svg preserveAspectRatio="none" width="100%" height="100%" overflow="visible" style="display: block;" viewBox="0 0 65 65" fill="none" xmlns="http://www.w3.org/2000/svg">
<g id="Avatar &#39;G&#39;">
<rect width="65" height="65" rx="32.5" fill="#0B1727"/>
<path id="G&#9;" d="M23.8784 21.2589C23.874 22.2286 23.848 27.0521 23.8472 28.3716C23.8362 27.3174 23.8463 29.6897 23.8472 28.3716C23.8526 28.8974 23.8732 33.0759 23.8836 33.431C23.8887 33.6075 23.8948 33.7687 23.9025 33.9027C23.9073 33.9873 23.919 34.2006 23.9584 34.3954C24.0644 34.9181 24.4234 35.9488 24.9583 37.0262C25.5004 38.1178 26.3292 39.4764 27.4763 40.5105C28.4862 41.4209 29.5232 42.1165 30.2985 42.5819C30.6891 42.8164 31.0207 42.9969 31.2594 43.121C31.3789 43.1831 31.4757 43.2315 31.5455 43.2656C31.5803 43.2826 31.6086 43.2961 31.6296 43.3061C31.6401 43.3111 31.6488 43.3152 31.6557 43.3184C31.6591 43.32 31.662 43.3214 31.6645 43.3225C31.6657 43.3231 31.6669 43.3237 31.6679 43.3241L31.6693 43.3248L31.67 43.3251C31.67 43.3251 31.681 43.3027 32.4768 41.5775C33.4257 43.235 33.4335 43.2477 33.4335 43.2477L33.4339 43.2475L33.435 43.2469L33.4478 43.2396C33.4558 43.235 33.4669 43.2285 33.4809 43.2204C33.5091 43.204 33.5492 43.1806 33.5999 43.1508C33.7011 43.0911 33.8449 43.0052 34.0213 42.8974C34.3733 42.6822 34.8592 42.3766 35.3968 42.014C36.4301 41.317 37.8085 40.3073 38.7381 39.2669C40.5777 37.2079 40.8812 35.5469 41.0046 34.9226L41.0153 34.8643C41.0664 34.5693 41.1505 34.2281 41.1541 34.0189C41.1589 33.7395 41.1593 30.5278 41.1535 30.2473L35.2004 30.2433L31.3313 34.0977L37.2258 34.0909C37.2224 34.183 37.2189 34.2185 37.2206 34.2133C37.1792 34.4258 37.1322 34.6765 36.9757 35.042C36.8076 35.4349 36.4909 36.0041 35.8672 36.7021C35.2784 37.3612 34.2438 38.148 33.2439 38.8225C32.9451 39.0241 32.6631 39.2067 32.4166 39.3623C32.3723 39.3363 32.3268 39.3093 32.2801 39.2813C31.645 38.9001 30.8263 38.3473 30.0539 37.6511C29.4188 37.0786 28.8484 36.2042 28.4064 35.3141C28.1929 34.884 28.0251 34.4825 27.9065 34.163C27.8473 34.0035 27.777 33.7828 27.7458 33.682C27.7458 33.682 27.7522 33.7055 27.7461 33.6838L27.7458 33.682C27.7411 33.6001 27.7362 33.4798 27.7316 33.319C27.7223 32.9997 27.7151 32.5648 27.7097 32.0472C27.6991 31.0145 27.696 29.688 27.6969 28.3739C27.6976 27.1964 27.7017 26.0334 27.7057 25.1086L37.2227 25.1086L37.222 28.1486L41.1335 24.2332L41.1339 21.2589L23.8784 21.2589ZM32.4768 41.5775L31.6705 43.3253L32.5718 43.7411L33.4331 43.248L32.4768 41.5775Z" fill="white"/>
</g>
</svg>
