<svg preserveAspectRatio="none" width="100%" height="100%" overflow="visible" style="display: block;" viewBox="0 0 20 22.8571" fill="none" xmlns="http://www.w3.org/2000/svg">
<path id="Calendar icon" d="M2.14286 22.8571C1.55357 22.8571 1.04911 22.6438 0.629464 22.2173C0.209821 21.7907 0 21.2897 0 20.7143V5C0 4.4246 0.209821 3.92361 0.629464 3.49702C1.04911 3.07044 1.55357 2.85714 2.14286 2.85714H4.28571V0H6.42857V2.85714H13.5714V0H15.7143V2.85714H17.8571C18.4464 2.85714 18.9509 3.07044 19.3705 3.49702C19.7902 3.92361 20 4.4246 20 5V20.7143C20 21.2897 19.7902 21.7907 19.3705 22.2173C18.9509 22.6438 18.4464 22.8571 17.8571 22.8571H2.14286ZM2.14286 20.7143H17.8571V10H2.14286V20.7143ZM2.14286 7.85714H17.8571V5H2.14286V7.85714ZM10.0062 14.2857C9.70446 14.2857 9.4494 14.1836 9.24107 13.9795C9.03274 13.7753 8.92857 13.5223 8.92857 13.2205C8.92857 12.9187 9.03066 12.6637 9.23482 12.4554C9.43899 12.247 9.69196 12.1429 9.99375 12.1429C10.2955 12.1429 10.5506 12.2449 10.7589 12.4491C10.9673 12.6533 11.0714 12.9063 11.0714 13.208C11.0714 13.5098 10.9693 13.7649 10.7652 13.9732C10.561 14.1815 10.308 14.2857 10.0062 14.2857ZM4.59821 13.9795C4.38988 13.7753 4.28571 13.5223 4.28571 13.2205C4.28571 12.9187 4.3878 12.6637 4.59196 12.4554C4.79613 12.247 5.04911 12.1429 5.35089 12.1429C5.65268 12.1429 5.90774 12.2449 6.11607 12.4491C6.3244 12.6533 6.42857 12.9063 6.42857 13.208C6.42857 13.5098 6.32649 13.7649 6.12232 13.9732C5.91815 14.1815 5.66518 14.2857 5.36339 14.2857C5.06161 14.2857 4.80655 14.1836 4.59821 13.9795ZM14.6491 14.2857C14.3473 14.2857 14.0923 14.1836 13.8839 13.9795C13.6756 13.7753 13.5714 13.5223 13.5714 13.2205C13.5714 12.9187 13.6735 12.6637 13.8777 12.4554C14.0818 12.247 14.3348 12.1429 14.6366 12.1429C14.9384 12.1429 15.1935 12.2449 15.4018 12.4491C15.6101 12.6533 15.7143 12.9063 15.7143 13.208C15.7143 13.5098 15.6122 13.7649 15.408 13.9732C15.2039 14.1815 14.9509 14.2857 14.6491 14.2857ZM10.0062 18.5714C9.70446 18.5714 9.4494 18.4693 9.24107 18.2652C9.03274 18.061 8.92857 17.808 8.92857 17.5062C8.92857 17.2045 9.03066 16.9494 9.23482 16.7411C9.43899 16.5327 9.69196 16.4286 9.99375 16.4286C10.2955 16.4286 10.5506 16.5307 10.7589 16.7348C10.9673 16.939 11.0714 17.192 11.0714 17.4938C11.0714 17.7955 10.9693 18.0506 10.7652 18.2589C10.561 18.4673 10.308 18.5714 10.0062 18.5714ZM4.59821 18.2652C4.38988 18.061 4.28571 17.808 4.28571 17.5062C4.28571 17.2045 4.3878 16.9494 4.59196 16.7411C4.79613 16.5327 5.04911 16.4286 5.35089 16.4286C5.65268 16.4286 5.90774 16.5307 6.11607 16.7348C6.3244 16.939 6.42857 17.192 6.42857 17.4938C6.42857 17.7955 6.32649 18.0506 6.12232 18.2589C5.91815 18.4673 5.66518 18.5714 5.36339 18.5714C5.06161 18.5714 4.80655 18.4693 4.59821 18.2652ZM14.6491 18.5714C14.3473 18.5714 14.0923 18.4693 13.8839 18.2652C13.6756 18.061 13.5714 17.808 13.5714 17.5062C13.5714 17.2045 13.6735 16.9494 13.8777 16.7411C14.0818 16.5327 14.3348 16.4286 14.6366 16.4286C14.9384 16.4286 15.1935 16.5307 15.4018 16.7348C15.6101 16.939 15.7143 17.192 15.7143 17.4938C15.7143 17.7955 15.6122 18.0506 15.408 18.2589C15.2039 18.4673 14.9509 18.5714 14.6491 18.5714Z" fill="#028CF6"/>
</svg>
