<svg preserveAspectRatio="none" width="100%" height="100%" overflow="visible" style="display: block;" viewBox="0 0 21 19" fill="none" xmlns="http://www.w3.org/2000/svg">
<path id="document_new" d="M2 14V2V7.3V7V14ZM2 16C1.45 16 0.979167 15.8042 0.5875 15.4125C0.195833 15.0208 0 14.55 0 14V2C0 1.45 0.195833 0.979167 0.5875 0.5875C0.979167 0.195833 1.45 0 2 0H8L10 2H18C18.55 2 19.0208 2.19583 19.4125 2.5875C19.8042 2.97917 20 3.45 20 4V8.275C19.7 8.05833 19.3833 7.87083 19.05 7.7125C18.7167 7.55417 18.3667 7.41667 18 7.3V4H9.175L7.175 2H2V14H9C9 14.35 9.025 14.6917 9.075 15.025C9.125 15.3583 9.2 15.6833 9.3 16H2ZM15.275 16.25L18.75 12.8L17.7 11.75L15.275 14.125L14.3 13.15L13.25 14.225L15.275 16.25ZM19.5375 10.4625C20.5125 11.4375 21 12.6167 21 14C21 15.3833 20.5125 16.5625 19.5375 17.5375C18.5625 18.5125 17.3833 19 16 19C14.6167 19 13.4375 18.5125 12.4625 17.5375C11.4875 16.5625 11 15.3833 11 14C11 12.6167 11.4875 11.4375 12.4625 10.4625C13.4375 9.4875 14.6167 9 16 9C17.3833 9 18.5625 9.4875 19.5375 10.4625Z" fill="#192F3F"/>
</svg>
