<svg preserveAspectRatio="xMidYMid meet" width="100%" height="100%" viewBox="0 0 20 20" fill="none" xmlns="http://www.w3.org/2000/svg">
<path d="M10 2C5.58172 2 2 5.58172 2 10C2 14.4183 5.58172 18 10 18C14.4183 18 18 14.4183 18 10C18 5.58172 14.4183 2 10 2ZM3.64 10.8H6.76C6.84 12.52 7.24 14.11 7.89 15.4C5.63 14.61 3.97 12.88 3.64 10.8ZM3.64 9.2C3.97 7.12 5.63 5.39 7.89 4.6C7.24 5.89 6.84 7.48 6.76 9.2H3.64ZM10 3.98C11.01 5.35 11.63 7.2 11.76 9.2H8.24C8.37 7.2 8.99 5.35 10 3.98ZM10 16.02C8.99 14.65 8.37 12.8 8.24 10.8H11.76C11.63 12.8 11.01 14.65 10 16.02ZM12.92 15.4C13.57 14.11 13.97 12.52 14.05 10.8H17.17C16.84 12.88 15.18 14.61 12.92 15.4ZM14.05 9.2C13.97 7.48 13.57 5.89 12.92 4.6C15.18 5.39 16.84 7.12 17.17 9.2H14.05Z" fill="#192F3F"/>
</svg>
