<svg preserveAspectRatio="none" width="100%" height="100%" overflow="visible" style="display: block;" viewBox="0 0 89.5131 29.2773" fill="none" xmlns="http://www.w3.org/2000/svg">
<g id="logo lc">
<path d="M0.0245086 2.49011L0.0243678 2.49249C0.0243569 2.49414 0.0243897 2.49666 0.0243678 2.4999C0.0243263 2.50639 0.0243101 2.51602 0.0242292 2.52872C0.0240675 2.5541 0.0238335 2.59172 0.0235298 2.64076C0.0229223 2.73886 0.0220627 2.88273 0.0210115 3.06599C0.018909 3.43252 0.0160709 3.95687 0.0131772 4.58842C0.00739421 5.85123 0.00125835 7.54416 0.00017 9.26244C-0.000916079 10.9789 0.00302055 12.7282 0.0172356 14.101C0.0243278 14.7858 0.0341224 15.3886 0.0475878 15.8511C0.0542794 16.0809 0.0621842 16.2908 0.0722082 16.4653C0.0785355 16.5754 0.0936854 16.8533 0.145084 17.1069C0.283022 17.7877 0.75055 19.1298 1.44721 20.5328C2.15309 21.9544 3.23238 23.7237 4.72624 25.0703C6.0413 26.2558 7.39182 27.1616 8.4014 27.7677C8.91004 28.0731 9.3419 28.3081 9.65274 28.4698C9.80839 28.5507 9.93435 28.6137 10.0252 28.6581C10.0707 28.6803 10.1074 28.6978 10.1348 28.7108C10.1484 28.7173 10.1598 28.7227 10.1688 28.7269C10.1732 28.729 10.177 28.7307 10.1802 28.7322C10.1818 28.7329 10.1847 28.7343 10.1847 28.7343L10.1865 28.7351L10.1874 28.7356C10.1874 28.7356 10.2017 28.7064 11.2381 26.4597C12.4738 28.6182 12.4839 28.6348 12.4839 28.6348L12.4858 28.6337L12.5025 28.6242C12.5129 28.6182 12.5274 28.6098 12.5457 28.5992C12.5824 28.5779 12.6346 28.5474 12.7005 28.5085C12.8323 28.4308 13.0197 28.319 13.2494 28.1786C13.7078 27.8983 14.3406 27.5004 15.0406 27.0282C16.3862 26.1205 18.1812 24.8057 19.3917 23.4508C21.7874 20.7695 22.1826 18.6064 22.3433 17.7935L22.3573 17.7175C22.4238 17.3333 22.5333 16.889 22.538 16.6167C22.5443 16.2527 22.5447 12.0703 22.5372 11.7051L14.7848 11.6999L9.7464 16.7193L17.4224 16.7104C17.418 16.8304 17.4135 16.8766 17.4157 16.8698C17.3617 17.1466 17.3005 17.473 17.0968 17.949C16.8778 18.4607 16.4653 19.2019 15.6532 20.1108C14.8864 20.9691 13.5392 21.9937 12.237 22.8721C11.8478 23.1347 11.4806 23.3724 11.1597 23.575C11.102 23.5412 11.0427 23.5061 10.9819 23.4696C10.1549 22.9731 9.08869 22.2533 8.08289 21.3466C7.25586 20.6011 6.51303 19.4625 5.93745 18.3033C5.65932 17.7432 5.44091 17.2203 5.28645 16.8042C5.20937 16.5966 5.15092 16.423 5.11035 16.2917C5.09609 16.2456 5.0855 16.2086 5.07748 16.1802L5.0772 16.1779C5.07107 16.0712 5.06469 15.9146 5.05859 15.7052C5.04649 15.2894 5.03718 14.7231 5.0302 14.0491C5.01627 12.7042 5.01233 10.9767 5.01341 9.26552C5.01438 7.73206 5.01971 6.2176 5.02488 5.01323L17.4184 5.01323L17.4174 8.97212L22.5112 3.87332L22.5118 0L0.0408744 9.82234e-07L0.0245086 2.49011ZM11.2381 26.4597L10.1881 28.7358L11.3618 29.2773L12.4839 28.6348L11.2381 26.4597ZM12.2887 24.1839L12.2894 24.1842L12.2906 24.1848L12.2887 24.1839Z" fill="#182D3D"/>
<path d="M22.5112 3.87332L17.4174 8.97212L17.4606 8.97017L22.5112 3.87332Z" fill="#182D3D"/>
<path d="M84.9008 25.7692V3.50807H89.5131V25.7692H84.9008Z" fill="#182D3D"/>
<path d="M63.9002 25.7692V3.50807H67.7153L79.4737 19.5361H77.6231V3.50807H82.1785V25.7692H78.3919L66.6049 9.7412H68.4555V25.7692H63.9002Z" fill="#182D3D"/>
<path d="M41.4758 25.7692L50.3587 3.50807H54.9141L63.8255 25.7692H58.9854L51.6969 6.1158H53.519L46.202 25.7692H41.4758ZM45.9173 20.999L47.1415 17.0874H57.391L58.6438 20.999H45.9173Z" fill="#182D3D"/>
<path d="M25.152 25.7692V3.50807H33.7787C35.5629 3.50807 37.1003 3.83668 38.391 4.49392C39.6817 5.12995 40.6781 6.0522 41.3804 7.26067C42.0827 8.46913 42.4338 9.9108 42.4338 11.5857C42.4338 13.2394 42.0827 14.6705 41.3804 15.8789C40.6781 17.0662 39.6817 17.9778 38.391 18.6139C37.1003 19.2499 35.5629 19.5679 33.7787 19.5679H27.7144L29.7643 17.31V25.7692H25.152ZM37.8216 25.7692L32.8392 17.6916H37.7646L42.804 25.7692H37.8216ZM29.7643 17.8824L27.7144 15.4655H33.5225C34.946 15.4655 36.0089 15.1263 36.7112 14.4478C37.4135 13.7482 37.7646 12.7942 37.7646 11.5857C37.7646 10.356 37.4135 9.40198 36.7112 8.72354C36.0089 8.04511 34.946 7.70589 33.5225 7.70589H27.7144L29.7643 5.25716V17.8824Z" fill="#182D3D"/>
</g>
</svg>
