<svg preserveAspectRatio="none" width="100%" height="100%" overflow="visible" style="display: block;" viewBox="0 0 25 20.6144" fill="none" xmlns="http://www.w3.org/2000/svg">
<path id="send_new" d="M23.0752 0.00177117C22.7366 0.0151983 22.4212 0.103846 22.1435 0.204752C21.8834 0.298814 20.8894 0.682008 19.3239 1.28549C17.7571 1.8895 15.6823 2.69019 13.4692 3.54571C9.04285 5.25676 4.0665 7.1828 1.5176 8.16857C1.42175 8.20562 1.08731 8.30166 0.732352 8.55076C0.37739 8.79986 0 9.31602 0 9.89117C0 10.3549 0.24588 10.8157 0.555367 11.0908C0.864854 11.3659 1.19233 11.5017 1.47284 11.6046C2.49063 11.9779 5.64722 13.1391 6.2433 13.3583C6.45308 13.936 7.59562 17.0777 7.86058 17.8477C8.03525 18.3558 8.20151 18.674 8.41798 18.9266C8.52622 19.0529 8.65204 19.1635 8.8045 19.2502C8.86545 19.2849 8.93227 19.3116 8.9998 19.3362L9.00387 19.338C9.01943 19.3436 9.03284 19.3532 9.04862 19.3581C9.07839 19.3675 9.09831 19.3686 9.13813 19.3764C9.29679 19.4225 9.45697 19.4514 9.59992 19.4514C10.2094 19.4514 10.5825 19.1497 10.5825 19.1497L10.6049 19.135L13.7397 16.6974L17.5419 19.9305C17.5954 19.9986 18.0947 20.6144 19.1958 20.6144C19.8496 20.6144 20.3682 20.3195 20.7012 20.0055C21.0341 19.6914 21.2416 19.3615 21.3298 18.9467V18.9449C21.4122 18.5529 24.9163 2.38269 24.9163 2.38269L24.9102 2.40463C25.0127 1.98376 25.0396 1.59181 24.9264 1.20503C24.8132 0.818246 24.515 0.44792 24.1453 0.24864C23.7755 0.0494047 23.4138 -0.011656 23.0752 0.00177117ZM22.8799 1.95844C22.8749 1.98576 22.8837 1.97202 22.8758 2.00415L22.8738 2.01513L22.8718 2.0261C22.8718 2.0261 19.4112 17.9895 19.2832 18.5974C19.2926 18.5515 19.2498 18.6428 19.2059 18.698C19.1439 18.6596 19.0168 18.6102 19.0168 18.6102L18.9964 18.5901L13.8028 14.1739L10.1309 17.0266L11.2233 13.095C11.2233 13.095 18.052 6.74082 18.4634 6.37099C18.7946 6.07513 18.8642 5.972 18.8642 5.86994C18.8642 5.73325 18.7849 5.63404 18.6079 5.63404C18.4485 5.63404 18.2342 5.77332 18.1196 5.83885C16.6269 6.69418 10.0739 10.1274 7.13637 11.6631C6.66955 11.4914 3.42641 10.2981 2.32725 9.89482C2.33558 9.89155 2.33284 9.89271 2.34149 9.88934C4.89106 8.90331 9.86535 6.97729 14.291 5.26648C16.5039 4.41108 18.5802 3.60978 20.1458 3.00626C21.6873 2.41203 22.7584 2.00307 22.8799 1.95844Z" fill="#192F3F"/>
</svg>
