<svg preserveAspectRatio="none" width="100%" height="100%" overflow="visible" style="display: block;" viewBox="0 0 21 16.125" fill="none" xmlns="http://www.w3.org/2000/svg">
<path id="split-unel-icon" d="M6.75 0C5.64487 0 4.6324 0.566402 4.10815 1.47803C3.90415 1.8324 3.66335 2.41056 3.53247 2.79419C3.41247 3.12269 1.57915 7.22442 0.451904 9.73242L0.460693 9.72876C0.168416 10.306 0 10.9469 0 11.625C0 14.1064 2.187 16.125 4.875 16.125C7.563 16.125 9.75 14.1064 9.75 11.625V10.2473C9.95152 10.1846 10.2112 10.125 10.5 10.125C10.7898 10.125 11.0488 10.1846 11.25 10.2473V11.625C11.25 14.1064 13.437 16.125 16.125 16.125C18.813 16.125 21 14.1064 21 11.625C21 10.9469 20.8316 10.306 20.5393 9.72876L20.5481 9.73242C19.4208 7.22405 17.5879 3.12258 17.4697 2.79858C17.337 2.41046 17.0958 1.8324 16.8918 1.47803C16.3676 0.566402 15.3551 0 14.25 0C12.6357 0 11.3185 1.2024 11.2559 2.7019C11.0264 2.65668 10.773 2.625 10.5 2.625C10.227 2.625 9.97361 2.65668 9.74414 2.7019C9.68149 1.2024 8.3643 0 6.75 0ZM10.5 4.125C10.7898 4.125 11.0488 4.18463 11.25 4.24731V5.70044C11.0221 5.65588 10.7705 5.625 10.5 5.625C10.2295 5.625 9.97789 5.65588 9.75 5.70044V4.24731C9.95152 4.18462 10.2112 4.125 10.5 4.125ZM4.875 8.625C6.73612 8.625 8.25 9.97088 8.25 11.625C8.25 13.2791 6.73612 14.625 4.875 14.625C3.01388 14.625 1.5 13.2791 1.5 11.625C1.5 9.97088 3.01388 8.625 4.875 8.625ZM16.125 8.625C17.9861 8.625 19.5 9.97088 19.5 11.625C19.5 13.2791 17.9861 14.625 16.125 14.625C14.2639 14.625 12.75 13.2791 12.75 11.625C12.75 9.97088 14.2639 8.625 16.125 8.625Z" fill="#192F3F"/>
</svg>
