<svg preserveAspectRatio="none" width="100%" height="100%" overflow="visible" style="display: block;" viewBox="0 0 20 20" fill="none" xmlns="http://www.w3.org/2000/svg">
<path id="sub icon" d="M0 20V17.7778H13.3333V20H0ZM0 15.5556V13.3333H20V15.5556H0ZM2.22222 11.1111C1.61111 11.1111 1.08796 10.8935 0.652778 10.4583C0.217593 10.0231 0 9.5 0 8.88889V2.22222C0 1.61111 0.217593 1.08796 0.652778 0.652778C1.08796 0.217593 1.61111 0 2.22222 0H17.7778C18.3889 0 18.912 0.217593 19.3472 0.652778C19.7824 1.08796 20 1.61111 20 2.22222V8.88889C20 9.5 19.7824 10.0231 19.3472 10.4583C18.912 10.8935 18.3889 11.1111 17.7778 11.1111H2.22222ZM2.22222 8.88889H17.7778V2.22222H2.22222V8.88889Z" fill="#192F3F"/>
</svg>
