<svg width="412" height="520" viewBox="0 0 412 520" fill="none" xmlns="http://www.w3.org/2000/svg">
<rect width="412" height="520" rx="18" fill="url(#paint0_linear_958_444)"/>
<line x1="171" y1="30" x2="240" y2="30" stroke="#004156" stroke-width="2"/>
<g filter="url(#filter0_di_958_444)">
<rect x="37" y="423" width="348" height="62" rx="25" fill="#182D3D" shape-rendering="crispEdges"/>
<path d="M97.266 461.988V446.588H110.73V461.988H108.2V448.15L108.816 448.81H99.202L99.796 448.15V461.988H97.266ZM121.407 462.12C120.234 462.12 119.178 461.863 118.239 461.35C117.315 460.836 116.582 460.132 116.039 459.238C115.511 458.328 115.247 457.294 115.247 456.136C115.247 454.962 115.511 453.928 116.039 453.034C116.582 452.139 117.315 451.435 118.239 450.922C119.163 450.408 120.219 450.152 121.407 450.152C122.61 450.152 123.673 450.408 124.597 450.922C125.536 451.42 126.269 452.117 126.797 453.012C127.325 453.906 127.589 454.948 127.589 456.136C127.589 457.294 127.325 458.328 126.797 459.238C126.269 460.132 125.536 460.836 124.597 461.35C123.659 461.863 122.595 462.12 121.407 462.12ZM121.407 459.986C122.126 459.986 122.757 459.832 123.299 459.524C123.857 459.201 124.297 458.746 124.619 458.16C124.942 457.573 125.103 456.898 125.103 456.136C125.103 455.344 124.942 454.662 124.619 454.09C124.297 453.518 123.857 453.078 123.299 452.77C122.757 452.447 122.133 452.286 121.429 452.286C120.725 452.286 120.095 452.447 119.537 452.77C118.995 453.078 118.555 453.518 118.217 454.09C117.895 454.662 117.733 455.344 117.733 456.136C117.733 456.898 117.895 457.573 118.217 458.16C118.555 458.746 118.995 459.201 119.537 459.524C120.095 459.832 120.718 459.986 121.407 459.986ZM131.76 461.988V450.284H137.37C138.778 450.284 139.878 450.548 140.67 451.076C141.476 451.589 141.88 452.33 141.88 453.298C141.88 454.251 141.498 454.992 140.736 455.52C139.988 456.048 138.99 456.312 137.744 456.312L138.096 455.674C139.504 455.674 140.545 455.938 141.22 456.466C141.909 456.979 142.254 457.734 142.254 458.732C142.254 459.758 141.872 460.558 141.11 461.13C140.347 461.702 139.174 461.988 137.59 461.988H131.76ZM134.158 460.118H137.392C138.198 460.118 138.8 459.993 139.196 459.744C139.606 459.494 139.812 459.098 139.812 458.556C139.812 458.013 139.628 457.61 139.262 457.346C138.895 457.082 138.308 456.95 137.502 456.95H134.158V460.118ZM134.158 455.212H137.15C137.898 455.212 138.462 455.08 138.844 454.816C139.225 454.537 139.416 454.148 139.416 453.65C139.416 453.136 139.225 452.762 138.844 452.528C138.462 452.278 137.898 452.154 137.15 452.154H134.158V455.212ZM149.077 461.988V451.802L149.649 452.418H144.875V450.284H155.721V452.418H150.947L151.541 451.802V461.988H149.077ZM163.738 462.12C162.565 462.12 161.509 461.863 160.57 461.35C159.646 460.836 158.913 460.132 158.37 459.238C157.842 458.328 157.578 457.294 157.578 456.136C157.578 454.962 157.842 453.928 158.37 453.034C158.913 452.139 159.646 451.435 160.57 450.922C161.494 450.408 162.55 450.152 163.738 450.152C164.941 450.152 166.004 450.408 166.928 450.922C167.867 451.42 168.6 452.117 169.128 453.012C169.656 453.906 169.92 454.948 169.92 456.136C169.92 457.294 169.656 458.328 169.128 459.238C168.6 460.132 167.867 460.836 166.928 461.35C165.99 461.863 164.926 462.12 163.738 462.12ZM163.738 459.986C164.457 459.986 165.088 459.832 165.63 459.524C166.188 459.201 166.628 458.746 166.95 458.16C167.273 457.573 167.434 456.898 167.434 456.136C167.434 455.344 167.273 454.662 166.95 454.09C166.628 453.518 166.188 453.078 165.63 452.77C165.088 452.447 164.464 452.286 163.76 452.286C163.056 452.286 162.426 452.447 161.868 452.77C161.326 453.078 160.886 453.518 160.548 454.09C160.226 454.662 160.064 455.344 160.064 456.136C160.064 456.898 160.226 457.573 160.548 458.16C160.886 458.746 161.326 459.201 161.868 459.524C162.426 459.832 163.049 459.986 163.738 459.986ZM180.427 462.12C179.473 462.12 178.593 461.907 177.787 461.482C176.995 461.042 176.357 460.382 175.873 459.502C175.403 458.607 175.169 457.485 175.169 456.136C175.169 454.772 175.396 453.65 175.851 452.77C176.32 451.89 176.951 451.237 177.743 450.812C178.549 450.372 179.444 450.152 180.427 450.152C181.585 450.152 182.612 450.401 183.507 450.9C184.401 451.398 185.105 452.095 185.619 452.99C186.132 453.884 186.389 454.933 186.389 456.136C186.389 457.338 186.132 458.387 185.619 459.282C185.105 460.176 184.401 460.873 183.507 461.372C182.612 461.87 181.585 462.12 180.427 462.12ZM174.091 466.256V450.284H176.445V453.21L176.357 456.158L176.577 459.106V466.256H174.091ZM180.207 459.986C180.896 459.986 181.519 459.832 182.077 459.524C182.634 459.201 183.074 458.754 183.397 458.182C183.719 457.595 183.881 456.913 183.881 456.136C183.881 455.344 183.719 454.662 183.397 454.09C183.074 453.518 182.634 453.078 182.077 452.77C181.519 452.447 180.896 452.286 180.207 452.286C179.503 452.286 178.872 452.447 178.315 452.77C177.772 453.078 177.332 453.518 176.995 454.09C176.672 454.662 176.511 455.344 176.511 456.136C176.511 456.913 176.672 457.595 176.995 458.182C177.332 458.754 177.772 459.201 178.315 459.524C178.872 459.832 179.503 459.986 180.207 459.986ZM190.579 461.988V450.284H193.065V458.314L199.819 450.284H202.063V461.988H199.599V453.936L192.845 461.988H190.579ZM209.679 461.988V451.802L210.251 452.418H205.477V450.284H216.323V452.418H211.549L212.143 451.802V461.988H209.679ZM225.406 454.156C226.902 454.17 228.039 454.515 228.816 455.19C229.608 455.864 230.004 456.81 230.004 458.028C230.004 459.304 229.572 460.294 228.706 460.998C227.841 461.687 226.616 462.024 225.032 462.01L219.73 461.988V450.284H222.216V454.134L225.406 454.156ZM224.834 460.162C225.7 460.176 226.36 460 226.814 459.634C227.269 459.252 227.496 458.71 227.496 458.006C227.496 457.287 227.269 456.766 226.814 456.444C226.374 456.121 225.714 455.952 224.834 455.938H222.216V460.14L224.834 460.162ZM246.338 462.12C245.165 462.12 244.109 461.863 243.17 461.35C242.246 460.836 241.513 460.132 240.97 459.238C240.442 458.328 240.178 457.294 240.178 456.136C240.178 454.962 240.442 453.928 240.97 453.034C241.513 452.139 242.246 451.435 243.17 450.922C244.094 450.408 245.15 450.152 246.338 450.152C247.541 450.152 248.604 450.408 249.528 450.922C250.467 451.42 251.2 452.117 251.728 453.012C252.256 453.906 252.52 454.948 252.52 456.136C252.52 457.294 252.256 458.328 251.728 459.238C251.2 460.132 250.467 460.836 249.528 461.35C248.59 461.863 247.526 462.12 246.338 462.12ZM246.338 459.986C247.057 459.986 247.688 459.832 248.23 459.524C248.788 459.201 249.228 458.746 249.55 458.16C249.873 457.573 250.034 456.898 250.034 456.136C250.034 455.344 249.873 454.662 249.55 454.09C249.228 453.518 248.788 453.078 248.23 452.77C247.688 452.447 247.064 452.286 246.36 452.286C245.656 452.286 245.026 452.447 244.468 452.77C243.926 453.078 243.486 453.518 243.148 454.09C242.826 454.662 242.664 455.344 242.664 456.136C242.664 456.898 242.826 457.573 243.148 458.16C243.486 458.746 243.926 459.201 244.468 459.524C245.026 459.832 245.649 459.986 246.338 459.986ZM256.69 461.988V450.284H267.756V461.988H265.292V451.824L265.864 452.418H258.582L259.176 451.824V461.988H256.69ZM271.116 461.966L271.248 459.876C271.351 459.89 271.446 459.905 271.534 459.92C271.622 459.934 271.703 459.942 271.776 459.942C272.245 459.942 272.612 459.795 272.876 459.502C273.14 459.194 273.331 458.79 273.448 458.292C273.58 457.778 273.668 457.214 273.712 456.598C273.771 455.967 273.815 455.336 273.844 454.706L274.042 450.284H283.304V461.988H280.818V451.714L281.412 452.418H275.648L276.198 451.692L276.044 454.838C276 455.879 275.919 456.847 275.802 457.742C275.685 458.622 275.494 459.399 275.23 460.074C274.981 460.734 274.636 461.254 274.196 461.636C273.771 462.002 273.221 462.186 272.546 462.186C272.341 462.186 272.113 462.164 271.864 462.12C271.629 462.076 271.38 462.024 271.116 461.966ZM295.634 461.988V459.568L295.524 459.084V454.904C295.524 454.082 295.275 453.437 294.776 452.968C294.277 452.498 293.522 452.264 292.51 452.264C291.835 452.264 291.175 452.374 290.53 452.594C289.885 452.799 289.335 453.085 288.88 453.452L287.89 451.626C288.506 451.142 289.239 450.775 290.09 450.526C290.955 450.276 291.857 450.152 292.796 450.152C294.453 450.152 295.729 450.555 296.624 451.362C297.533 452.154 297.988 453.378 297.988 455.036V461.988H295.634ZM291.938 462.12C291.043 462.12 290.266 461.973 289.606 461.68C288.946 461.386 288.44 460.976 288.088 460.448C287.736 459.92 287.56 459.318 287.56 458.644C287.56 457.998 287.714 457.419 288.022 456.906C288.33 456.378 288.836 455.96 289.54 455.652C290.244 455.329 291.183 455.168 292.356 455.168H295.876V456.906H292.488C291.491 456.906 290.823 457.067 290.486 457.39C290.163 457.712 290.002 458.101 290.002 458.556C290.002 459.069 290.207 459.48 290.618 459.788C291.043 460.096 291.63 460.25 292.378 460.25C293.097 460.25 293.735 460.088 294.292 459.766C294.864 459.443 295.275 458.974 295.524 458.358L295.964 460.03C295.685 460.69 295.201 461.203 294.512 461.57C293.837 461.936 292.979 462.12 291.938 462.12ZM305.287 461.988V451.802L305.859 452.418H301.085V450.284H311.931V452.418H307.157L307.751 451.802V461.988H305.287ZM316.174 466.388C315.602 466.388 315.037 466.292 314.48 466.102C313.937 465.926 313.468 465.662 313.072 465.31L314.106 463.484C314.384 463.748 314.7 463.946 315.052 464.078C315.418 464.224 315.792 464.298 316.174 464.298C316.672 464.298 317.076 464.173 317.384 463.924C317.706 463.674 318.007 463.234 318.286 462.604L318.99 461.042L319.21 460.734L323.72 450.284H326.118L320.53 463.022C320.178 463.887 319.782 464.562 319.342 465.046C318.916 465.544 318.44 465.889 317.912 466.08C317.384 466.285 316.804 466.388 316.174 466.388ZM318.748 462.384L313.446 450.284H315.998L320.398 460.514L318.748 462.384Z" fill="white"/>
</g>
<path d="M214.857 175.732C215.94 174.658 216.481 173.372 216.481 171.875C216.481 170.378 215.944 169.088 214.87 168.005C213.796 166.923 212.51 166.381 211.012 166.381C209.515 166.381 208.226 166.919 207.143 167.993C206.06 169.067 205.519 170.353 205.519 171.851C205.519 173.347 206.056 174.637 207.131 175.72C208.205 176.803 209.49 177.344 210.988 177.344C212.485 177.344 213.775 176.807 214.857 175.732ZM206.026 161.204H215.974V138.873H206.026V161.204ZM211.013 203.634C200.531 201.211 191.852 195.454 184.976 186.363C178.099 177.273 174.661 167.223 174.661 156.214V129.794L211 115.932L247.34 129.794V156.214C247.34 167.223 243.906 177.273 237.038 186.363C230.17 195.454 221.495 201.211 211.013 203.634Z" fill="#ED0000"/>
<path d="M86.25 301.18C84.67 301.18 83.2 300.92 81.84 300.4C80.5 299.86 79.33 299.11 78.33 298.15C77.35 297.17 76.58 296.04 76.02 294.76C75.48 293.46 75.21 292.04 75.21 290.5C75.21 288.96 75.48 287.55 76.02 286.27C76.58 284.97 77.35 283.84 78.33 282.88C79.33 281.9 80.5 281.15 81.84 280.63C83.18 280.09 84.65 279.82 86.25 279.82C87.83 279.82 89.29 280.09 90.63 280.63C91.97 281.15 93.13 281.89 94.11 282.85C95.11 283.81 95.88 284.94 96.42 286.24C96.98 287.54 97.26 288.96 97.26 290.5C97.26 292.04 96.98 293.46 96.42 294.76C95.88 296.06 95.11 297.19 94.11 298.15C93.13 299.11 91.97 299.86 90.63 300.4C89.29 300.92 87.83 301.18 86.25 301.18ZM86.25 299.2C87.51 299.2 88.67 298.99 89.73 298.57C90.81 298.13 91.74 297.52 92.52 296.74C93.32 295.94 93.94 295.02 94.38 293.98C94.82 292.92 95.04 291.76 95.04 290.5C95.04 289.24 94.82 288.09 94.38 287.05C93.94 285.99 93.32 285.07 92.52 284.29C91.74 283.49 90.81 282.88 89.73 282.46C88.67 282.02 87.51 281.8 86.25 281.8C84.99 281.8 83.82 282.02 82.74 282.46C81.66 282.88 80.72 283.49 79.92 284.29C79.14 285.07 78.52 285.99 78.06 287.05C77.62 288.09 77.4 289.24 77.4 290.5C77.4 291.74 77.62 292.89 78.06 293.95C78.52 295.01 79.14 295.94 79.92 296.74C80.72 297.52 81.66 298.13 82.74 298.57C83.82 298.99 84.99 299.2 86.25 299.2ZM100.848 301V285.25H115.008V301H112.878V286.54L113.418 287.11H102.438L102.978 286.54V301H100.848ZM116.982 300.97L117.132 299.14C117.272 299.16 117.402 299.19 117.522 299.23C117.662 299.25 117.782 299.26 117.882 299.26C118.522 299.26 119.032 299.02 119.412 298.54C119.812 298.06 120.112 297.42 120.312 296.62C120.512 295.82 120.652 294.92 120.732 293.92C120.812 292.9 120.882 291.88 120.942 290.86L121.212 285.25H132.762V301H130.632V286.48L131.172 287.11H122.592L123.102 286.45L122.862 291.01C122.802 292.37 122.692 293.67 122.532 294.91C122.392 296.15 122.162 297.24 121.842 298.18C121.542 299.12 121.122 299.86 120.582 300.4C120.042 300.92 119.352 301.18 118.512 301.18C118.272 301.18 118.022 301.16 117.762 301.12C117.522 301.08 117.262 301.03 116.982 300.97ZM147.398 301V297.52L147.308 296.95V291.13C147.308 289.79 146.928 288.76 146.168 288.04C145.428 287.32 144.318 286.96 142.838 286.96C141.818 286.96 140.848 287.13 139.928 287.47C139.008 287.81 138.228 288.26 137.588 288.82L136.628 287.23C137.428 286.55 138.388 286.03 139.508 285.67C140.628 285.29 141.808 285.1 143.048 285.1C145.088 285.1 146.658 285.61 147.758 286.63C148.878 287.63 149.438 289.16 149.438 291.22V301H147.398ZM141.968 301.15C140.788 301.15 139.758 300.96 138.878 300.58C138.018 300.18 137.358 299.64 136.898 298.96C136.438 298.26 136.208 297.46 136.208 296.56C136.208 295.74 136.398 295 136.778 294.34C137.178 293.66 137.818 293.12 138.698 292.72C139.598 292.3 140.798 292.09 142.298 292.09H147.728V293.68H142.358C140.838 293.68 139.778 293.95 139.178 294.49C138.598 295.03 138.308 295.7 138.308 296.5C138.308 297.4 138.658 298.12 139.358 298.66C140.058 299.2 141.038 299.47 142.298 299.47C143.498 299.47 144.528 299.2 145.388 298.66C146.268 298.1 146.908 297.3 147.308 296.26L147.788 297.73C147.388 298.77 146.688 299.6 145.688 300.22C144.708 300.84 143.468 301.15 141.968 301.15ZM156.908 301V286.54L157.448 287.11H150.938V285.25H165.008V287.11H158.498L159.038 286.54V301H156.908ZM176.667 301V297.52L176.577 296.95V291.13C176.577 289.79 176.197 288.76 175.437 288.04C174.697 287.32 173.587 286.96 172.107 286.96C171.087 286.96 170.117 287.13 169.197 287.47C168.277 287.81 167.497 288.26 166.857 288.82L165.897 287.23C166.697 286.55 167.657 286.03 168.777 285.67C169.897 285.29 171.077 285.1 172.317 285.1C174.357 285.1 175.927 285.61 177.027 286.63C178.147 287.63 178.707 289.16 178.707 291.22V301H176.667ZM171.237 301.15C170.057 301.15 169.027 300.96 168.147 300.58C167.287 300.18 166.627 299.64 166.167 298.96C165.707 298.26 165.477 297.46 165.477 296.56C165.477 295.74 165.667 295 166.047 294.34C166.447 293.66 167.087 293.12 167.967 292.72C168.867 292.3 170.067 292.09 171.567 292.09H176.997V293.68H171.627C170.107 293.68 169.047 293.95 168.447 294.49C167.867 295.03 167.577 295.7 167.577 296.5C167.577 297.4 167.927 298.12 168.627 298.66C169.327 299.2 170.307 299.47 171.567 299.47C172.767 299.47 173.797 299.2 174.657 298.66C175.537 298.1 176.177 297.3 176.577 296.26L177.057 297.73C176.657 298.77 175.957 299.6 174.957 300.22C173.977 300.84 172.737 301.15 171.237 301.15ZM189.829 301V285.25H191.959V292.21H201.889V285.25H204.019V301H201.889V294.04H191.959V301H189.829ZM215.623 301.15C213.983 301.15 212.543 300.81 211.303 300.13C210.063 299.43 209.093 298.48 208.393 297.28C207.693 296.06 207.343 294.67 207.343 293.11C207.343 291.55 207.673 290.17 208.333 288.97C209.013 287.77 209.933 286.83 211.093 286.15C212.273 285.45 213.593 285.1 215.053 285.1C216.533 285.1 217.843 285.44 218.983 286.12C220.143 286.78 221.053 287.72 221.713 288.94C222.373 290.14 222.703 291.53 222.703 293.11C222.703 293.21 222.693 293.32 222.673 293.44C222.673 293.54 222.673 293.65 222.673 293.77H208.963V292.18H221.533L220.693 292.81C220.693 291.67 220.443 290.66 219.943 289.78C219.463 288.88 218.803 288.18 217.963 287.68C217.123 287.18 216.153 286.93 215.053 286.93C213.973 286.93 213.003 287.18 212.143 287.68C211.283 288.18 210.613 288.88 210.133 289.78C209.653 290.68 209.413 291.71 209.413 292.87V293.2C209.413 294.4 209.673 295.46 210.193 296.38C210.733 297.28 211.473 297.99 212.413 298.51C213.373 299.01 214.463 299.26 215.683 299.26C216.643 299.26 217.533 299.09 218.353 298.75C219.193 298.41 219.913 297.89 220.513 297.19L221.713 298.57C221.013 299.41 220.133 300.05 219.073 300.49C218.033 300.93 216.883 301.15 215.623 301.15ZM232.87 301V285.25H247.03V301H244.9V286.54L245.44 287.11H234.46L235 286.54V301H232.87ZM260.015 301.15C258.655 301.15 257.425 300.84 256.325 300.22C255.225 299.58 254.345 298.67 253.685 297.49C253.045 296.29 252.725 294.83 252.725 293.11C252.725 291.39 253.045 289.94 253.685 288.76C254.325 287.56 255.195 286.65 256.295 286.03C257.395 285.41 258.635 285.1 260.015 285.1C261.515 285.1 262.855 285.44 264.035 286.12C265.235 286.78 266.175 287.72 266.855 288.94C267.535 290.14 267.875 291.53 267.875 293.11C267.875 294.71 267.535 296.11 266.855 297.31C266.175 298.51 265.235 299.45 264.035 300.13C262.855 300.81 261.515 301.15 260.015 301.15ZM251.885 306.82V285.25H253.925V289.99L253.715 293.14L254.015 296.32V306.82H251.885ZM259.865 299.26C260.985 299.26 261.985 299.01 262.865 298.51C263.745 297.99 264.445 297.27 264.965 296.35C265.485 295.41 265.745 294.33 265.745 293.11C265.745 291.89 265.485 290.82 264.965 289.9C264.445 288.98 263.745 288.26 262.865 287.74C261.985 287.22 260.985 286.96 259.865 286.96C258.745 286.96 257.735 287.22 256.835 287.74C255.955 288.26 255.255 288.98 254.735 289.9C254.235 290.82 253.985 291.89 253.985 293.11C253.985 294.33 254.235 295.41 254.735 296.35C255.255 297.27 255.955 297.99 256.835 298.51C257.735 299.01 258.745 299.26 259.865 299.26ZM277.731 301.15C276.211 301.15 274.841 300.81 273.621 300.13C272.421 299.43 271.471 298.48 270.771 297.28C270.071 296.06 269.721 294.67 269.721 293.11C269.721 291.53 270.071 290.14 270.771 288.94C271.471 287.74 272.421 286.8 273.621 286.12C274.821 285.44 276.191 285.1 277.731 285.1C279.291 285.1 280.671 285.44 281.871 286.12C283.091 286.8 284.041 287.74 284.721 288.94C285.421 290.14 285.771 291.53 285.771 293.11C285.771 294.67 285.421 296.06 284.721 297.28C284.041 298.48 283.091 299.43 281.871 300.13C280.651 300.81 279.271 301.15 277.731 301.15ZM277.731 299.26C278.871 299.26 279.881 299.01 280.761 298.51C281.641 297.99 282.331 297.27 282.831 296.35C283.351 295.41 283.611 294.33 283.611 293.11C283.611 291.87 283.351 290.79 282.831 289.87C282.331 288.95 281.641 288.24 280.761 287.74C279.881 287.22 278.881 286.96 277.761 286.96C276.641 286.96 275.641 287.22 274.761 287.74C273.881 288.24 273.181 288.95 272.661 289.87C272.141 290.79 271.881 291.87 271.881 293.11C271.881 294.33 272.141 295.41 272.661 296.35C273.181 297.27 273.881 297.99 274.761 298.51C275.641 299.01 276.631 299.26 277.731 299.26ZM299.473 299.14L298.993 299.71V285.25H301.123V299.71L300.553 299.14H309.343L308.773 299.71V285.25H310.903V301H289.123V285.25H291.253V299.71L290.713 299.14H299.473ZM312.875 300.97L313.025 299.14C313.165 299.16 313.295 299.19 313.415 299.23C313.555 299.25 313.675 299.26 313.775 299.26C314.415 299.26 314.925 299.02 315.305 298.54C315.705 298.06 316.005 297.42 316.205 296.62C316.405 295.82 316.545 294.92 316.625 293.92C316.705 292.9 316.775 291.88 316.835 290.86L317.105 285.25H328.655V301H326.525V286.48L327.065 287.11H318.485L318.995 286.45L318.755 291.01C318.695 292.37 318.585 293.67 318.425 294.91C318.285 296.15 318.055 297.24 317.735 298.18C317.435 299.12 317.015 299.86 316.475 300.4C315.935 300.92 315.245 301.18 314.405 301.18C314.165 301.18 313.915 301.16 313.655 301.12C313.415 301.08 313.155 301.03 312.875 300.97ZM343.29 301V297.52L343.2 296.95V291.13C343.2 289.79 342.82 288.76 342.06 288.04C341.32 287.32 340.21 286.96 338.73 286.96C337.71 286.96 336.74 287.13 335.82 287.47C334.9 287.81 334.12 288.26 333.48 288.82L332.52 287.23C333.32 286.55 334.28 286.03 335.4 285.67C336.52 285.29 337.7 285.1 338.94 285.1C340.98 285.1 342.55 285.61 343.65 286.63C344.77 287.63 345.33 289.16 345.33 291.22V301H343.29ZM337.86 301.15C336.68 301.15 335.65 300.96 334.77 300.58C333.91 300.18 333.25 299.64 332.79 298.96C332.33 298.26 332.1 297.46 332.1 296.56C332.1 295.74 332.29 295 332.67 294.34C333.07 293.66 333.71 293.12 334.59 292.72C335.49 292.3 336.69 292.09 338.19 292.09H343.62V293.68H338.25C336.73 293.68 335.67 293.95 335.07 294.49C334.49 295.03 334.2 295.7 334.2 296.5C334.2 297.4 334.55 298.12 335.25 298.66C335.95 299.2 336.93 299.47 338.19 299.47C339.39 299.47 340.42 299.2 341.28 298.66C342.16 298.1 342.8 297.3 343.2 296.26L343.68 297.73C343.28 298.77 342.58 299.6 341.58 300.22C340.6 300.84 339.36 301.15 337.86 301.15Z" fill="#192F3F"/>
<path d="M75.516 338V326.8H76.204L81.404 335.776H81.036L86.22 326.8H86.892L86.908 338H86.108L86.092 328.032H86.316L81.404 336.512H81.004L76.076 328.032H76.316V338H75.516ZM99.6259 338V329.648H100.426V338H99.6259ZM94.9059 332.688C95.9512 332.699 96.7405 332.928 97.2739 333.376C97.8179 333.813 98.0899 334.459 98.0899 335.312C98.0899 336.197 97.8019 336.875 97.2259 337.344C96.6499 337.813 95.8179 338.043 94.7299 338.032L91.6099 338V329.648H92.4099V332.656L94.9059 332.688ZM94.6979 337.392C95.5512 337.403 96.1965 337.232 96.6339 336.88C97.0712 336.528 97.2899 336.005 97.2899 335.312C97.2899 334.64 97.0712 334.139 96.6339 333.808C96.2072 333.477 95.5619 333.307 94.6979 333.296L92.4099 333.28V337.36L94.6979 337.392ZM109.889 338V329.648H110.689V333.456H116.353V329.648H117.153V338H116.353V334.16H110.689V338H109.889ZM125.024 338.064C124.181 338.064 123.435 337.883 122.784 337.52C122.144 337.157 121.637 336.656 121.264 336.016C120.901 335.376 120.72 334.645 120.72 333.824C120.72 332.992 120.891 332.261 121.232 331.632C121.584 330.992 122.064 330.491 122.672 330.128C123.28 329.765 123.963 329.584 124.72 329.584C125.477 329.584 126.155 329.76 126.752 330.112C127.36 330.464 127.835 330.96 128.176 331.6C128.528 332.229 128.704 332.96 128.704 333.792C128.704 333.824 128.699 333.861 128.688 333.904C128.688 333.936 128.688 333.973 128.688 334.016H121.312V333.392H128.256L127.936 333.696C127.947 333.045 127.808 332.464 127.52 331.952C127.243 331.429 126.864 331.024 126.384 330.736C125.904 330.437 125.349 330.288 124.72 330.288C124.101 330.288 123.547 330.437 123.056 330.736C122.576 331.024 122.197 331.429 121.92 331.952C121.643 332.464 121.504 333.051 121.504 333.712V333.856C121.504 334.539 121.653 335.147 121.952 335.68C122.261 336.203 122.683 336.613 123.216 336.912C123.749 337.2 124.357 337.344 125.04 337.344C125.573 337.344 126.069 337.248 126.528 337.056C126.997 336.864 127.392 336.571 127.712 336.176L128.176 336.704C127.813 337.152 127.355 337.493 126.8 337.728C126.256 337.952 125.664 338.064 125.024 338.064ZM140.723 338.064C139.913 338.064 139.187 337.883 138.547 337.52C137.918 337.157 137.417 336.656 137.043 336.016C136.681 335.376 136.499 334.645 136.499 333.824C136.499 332.992 136.681 332.256 137.043 331.616C137.417 330.976 137.918 330.48 138.547 330.128C139.187 329.765 139.913 329.584 140.723 329.584C141.395 329.584 142.003 329.712 142.547 329.968C143.102 330.224 143.55 330.608 143.891 331.12L143.299 331.552C143.001 331.125 142.627 330.811 142.179 330.608C141.731 330.405 141.246 330.304 140.723 330.304C140.073 330.304 139.486 330.453 138.963 330.752C138.451 331.04 138.046 331.451 137.747 331.984C137.459 332.507 137.315 333.12 137.315 333.824C137.315 334.528 137.459 335.147 137.747 335.68C138.046 336.203 138.451 336.613 138.963 336.912C139.486 337.2 140.073 337.344 140.723 337.344C141.246 337.344 141.731 337.243 142.179 337.04C142.627 336.837 143.001 336.523 143.299 336.096L143.891 336.528C143.55 337.04 143.102 337.424 142.547 337.68C142.003 337.936 141.395 338.064 140.723 338.064ZM147.214 338V329.648H147.998L151.95 336.256H151.598L155.566 329.648H156.302V338H155.566V330.608L155.726 330.672L151.934 336.928H151.566L147.758 330.624L147.95 330.592V338H147.214ZM164.049 338.064C163.249 338.064 162.534 337.883 161.905 337.52C161.286 337.157 160.79 336.656 160.417 336.016C160.054 335.376 159.873 334.645 159.873 333.824C159.873 332.992 160.054 332.261 160.417 331.632C160.79 330.992 161.286 330.491 161.905 330.128C162.534 329.765 163.249 329.584 164.049 329.584C164.849 329.584 165.563 329.765 166.193 330.128C166.822 330.491 167.318 330.992 167.681 331.632C168.043 332.261 168.225 332.992 168.225 333.824C168.225 334.645 168.043 335.376 167.681 336.016C167.318 336.656 166.822 337.157 166.193 337.52C165.563 337.883 164.849 338.064 164.049 338.064ZM164.049 337.344C164.689 337.344 165.265 337.2 165.777 336.912C166.289 336.613 166.689 336.197 166.977 335.664C167.265 335.131 167.409 334.517 167.409 333.824C167.409 333.12 167.265 332.507 166.977 331.984C166.689 331.451 166.289 331.04 165.777 330.752C165.265 330.453 164.689 330.304 164.049 330.304C163.409 330.304 162.833 330.453 162.321 330.752C161.819 331.04 161.419 331.451 161.121 331.984C160.833 332.507 160.689 333.12 160.689 333.824C160.689 334.517 160.833 335.131 161.121 335.664C161.419 336.197 161.819 336.613 162.321 336.912C162.833 337.2 163.409 337.344 164.049 337.344ZM171.79 338V329.648H177.502V330.368H172.366L172.59 330.144V338H171.79ZM178.039 337.968L178.119 337.28C178.183 337.291 178.247 337.307 178.311 337.328C178.386 337.339 178.45 337.344 178.503 337.344C178.866 337.344 179.154 337.211 179.367 336.944C179.581 336.667 179.741 336.299 179.847 335.84C179.965 335.381 180.045 334.864 180.087 334.288C180.141 333.712 180.183 333.125 180.215 332.528L180.359 329.648H186.215V338H185.415V330.112L185.639 330.368H180.871L181.079 330.096L180.951 332.592C180.909 333.317 180.85 334.011 180.775 334.672C180.701 335.333 180.589 335.92 180.439 336.432C180.29 336.944 180.077 337.349 179.799 337.648C179.522 337.936 179.165 338.08 178.727 338.08C178.621 338.08 178.509 338.069 178.391 338.048C178.285 338.027 178.167 338 178.039 337.968ZM190.632 338V329.648H191.432V336.768L197.384 329.648H198.088V338H197.288V330.88L191.336 338H190.632ZM210.943 338.064C210.133 338.064 209.407 337.883 208.767 337.52C208.138 337.157 207.637 336.656 207.263 336.016C206.901 335.376 206.719 334.645 206.719 333.824C206.719 332.992 206.901 332.256 207.263 331.616C207.637 330.976 208.138 330.48 208.767 330.128C209.407 329.765 210.133 329.584 210.943 329.584C211.615 329.584 212.223 329.712 212.767 329.968C213.322 330.224 213.77 330.608 214.111 331.12L213.519 331.552C213.221 331.125 212.847 330.811 212.399 330.608C211.951 330.405 211.466 330.304 210.943 330.304C210.293 330.304 209.706 330.453 209.183 330.752C208.671 331.04 208.266 331.451 207.967 331.984C207.679 332.507 207.535 333.12 207.535 333.824C207.535 334.528 207.679 335.147 207.967 335.68C208.266 336.203 208.671 336.613 209.183 336.912C209.706 337.2 210.293 337.344 210.943 337.344C211.466 337.344 211.951 337.243 212.399 337.04C212.847 336.837 213.221 336.523 213.519 336.096L214.111 336.528C213.77 337.04 213.322 337.424 212.767 337.68C212.223 337.936 211.615 338.064 210.943 338.064ZM217.434 338V329.648H224.73V338H223.93V330.128L224.154 330.368H218.01L218.234 330.128V338H217.434ZM229.144 338V329.648H229.944V336.768L235.896 329.648H236.6V338H235.8V330.88L229.848 338H229.144ZM244.386 338.064C243.575 338.064 242.85 337.883 242.21 337.52C241.581 337.157 241.079 336.656 240.706 336.016C240.343 335.376 240.162 334.645 240.162 333.824C240.162 332.992 240.343 332.256 240.706 331.616C241.079 330.976 241.581 330.48 242.21 330.128C242.85 329.765 243.575 329.584 244.386 329.584C245.058 329.584 245.666 329.712 246.21 329.968C246.765 330.224 247.213 330.608 247.554 331.12L246.962 331.552C246.663 331.125 246.29 330.811 245.842 330.608C245.394 330.405 244.909 330.304 244.386 330.304C243.735 330.304 243.149 330.453 242.626 330.752C242.114 331.04 241.709 331.451 241.41 331.984C241.122 332.507 240.978 333.12 240.978 333.824C240.978 334.528 241.122 335.147 241.41 335.68C241.709 336.203 242.114 336.613 242.626 336.912C243.149 337.2 243.735 337.344 244.386 337.344C244.909 337.344 245.394 337.243 245.842 337.04C246.29 336.837 246.663 336.523 246.962 336.096L247.554 336.528C247.213 337.04 246.765 337.424 246.21 337.68C245.666 337.936 245.058 338.064 244.386 338.064ZM256.092 338V336.096L256.06 335.808V332.672C256.06 331.893 255.847 331.301 255.42 330.896C255.004 330.491 254.391 330.288 253.58 330.288C253.004 330.288 252.465 330.389 251.964 330.592C251.473 330.784 251.052 331.035 250.7 331.344L250.3 330.768C250.716 330.395 251.217 330.107 251.804 329.904C252.391 329.691 253.004 329.584 253.644 329.584C254.679 329.584 255.473 329.845 256.028 330.368C256.583 330.891 256.86 331.669 256.86 332.704V338H256.092ZM253.084 338.064C252.465 338.064 251.927 337.968 251.468 337.776C251.02 337.573 250.673 337.291 250.428 336.928C250.193 336.565 250.076 336.149 250.076 335.68C250.076 335.253 250.172 334.869 250.364 334.528C250.567 334.176 250.897 333.893 251.356 333.68C251.815 333.456 252.428 333.344 253.196 333.344H256.268V333.968H253.212C252.348 333.968 251.74 334.128 251.388 334.448C251.047 334.768 250.876 335.168 250.876 335.648C250.876 336.181 251.079 336.608 251.484 336.928C251.889 337.248 252.46 337.408 253.196 337.408C253.9 337.408 254.492 337.248 254.972 336.928C255.463 336.608 255.825 336.144 256.06 335.536L256.284 336.08C256.06 336.688 255.676 337.173 255.132 337.536C254.599 337.888 253.916 338.064 253.084 338.064ZM262.59 338V330.128L262.814 330.368H259.326V329.648H266.654V330.368H263.166L263.39 330.128V338H262.59ZM272.671 332.688C273.706 332.699 274.495 332.928 275.039 333.376C275.583 333.813 275.855 334.459 275.855 335.312C275.855 336.197 275.567 336.875 274.991 337.344C274.415 337.813 273.578 338.043 272.479 338.032L269.327 338V329.648H270.127V332.656L272.671 332.688ZM272.463 337.392C273.317 337.403 273.957 337.232 274.383 336.88C274.821 336.528 275.039 336.005 275.039 335.312C275.039 334.64 274.826 334.139 274.399 333.808C273.973 333.477 273.327 333.307 272.463 333.296L270.127 333.28V337.36L272.463 337.392ZM287.529 338.064C286.729 338.064 286.014 337.883 285.385 337.52C284.766 337.157 284.27 336.656 283.897 336.016C283.534 335.376 283.353 334.645 283.353 333.824C283.353 332.992 283.534 332.261 283.897 331.632C284.27 330.992 284.766 330.491 285.385 330.128C286.014 329.765 286.729 329.584 287.529 329.584C288.329 329.584 289.043 329.765 289.673 330.128C290.302 330.491 290.798 330.992 291.161 331.632C291.523 332.261 291.705 332.992 291.705 333.824C291.705 334.645 291.523 335.376 291.161 336.016C290.798 336.656 290.302 337.157 289.673 337.52C289.043 337.883 288.329 338.064 287.529 338.064ZM287.529 337.344C288.169 337.344 288.745 337.2 289.257 336.912C289.769 336.613 290.169 336.197 290.457 335.664C290.745 335.131 290.889 334.517 290.889 333.824C290.889 333.12 290.745 332.507 290.457 331.984C290.169 331.451 289.769 331.04 289.257 330.752C288.745 330.453 288.169 330.304 287.529 330.304C286.889 330.304 286.313 330.453 285.801 330.752C285.299 331.04 284.899 331.451 284.601 331.984C284.313 332.507 284.169 333.12 284.169 333.824C284.169 334.517 284.313 335.131 284.601 335.664C284.899 336.197 285.299 336.613 285.801 336.912C286.313 337.2 286.889 337.344 287.529 337.344ZM295.27 338V329.648H302.566V338H301.766V330.128L301.99 330.368H295.846L296.07 330.128V338H295.27ZM305.332 337.968L305.412 337.28C305.476 337.291 305.54 337.307 305.604 337.328C305.679 337.339 305.743 337.344 305.796 337.344C306.159 337.344 306.447 337.211 306.66 336.944C306.873 336.667 307.033 336.299 307.14 335.84C307.257 335.381 307.337 334.864 307.38 334.288C307.433 333.712 307.476 333.125 307.508 332.528L307.652 329.648H313.508V338H312.708V330.112L312.932 330.368H308.164L308.372 330.096L308.244 332.592C308.201 333.317 308.143 334.011 308.068 334.672C307.993 335.333 307.881 335.92 307.732 336.432C307.583 336.944 307.369 337.349 307.092 337.648C306.815 337.936 306.457 338.08 306.02 338.08C305.913 338.08 305.801 338.069 305.684 338.048C305.577 338.027 305.46 338 305.332 337.968ZM323.14 338V336.096L323.108 335.808V332.672C323.108 331.893 322.895 331.301 322.468 330.896C322.052 330.491 321.439 330.288 320.628 330.288C320.052 330.288 319.514 330.389 319.012 330.592C318.522 330.784 318.1 331.035 317.748 331.344L317.348 330.768C317.764 330.395 318.266 330.107 318.852 329.904C319.439 329.691 320.052 329.584 320.692 329.584C321.727 329.584 322.522 329.845 323.076 330.368C323.631 330.891 323.908 331.669 323.908 332.704V338H323.14ZM320.132 338.064C319.514 338.064 318.975 337.968 318.516 337.776C318.068 337.573 317.722 337.291 317.476 336.928C317.242 336.565 317.124 336.149 317.124 335.68C317.124 335.253 317.22 334.869 317.412 334.528C317.615 334.176 317.946 333.893 318.404 333.68C318.863 333.456 319.476 333.344 320.244 333.344H323.316V333.968H320.26C319.396 333.968 318.788 334.128 318.436 334.448C318.095 334.768 317.924 335.168 317.924 335.648C317.924 336.181 318.127 336.608 318.532 336.928C318.938 337.248 319.508 337.408 320.244 337.408C320.948 337.408 321.54 337.248 322.02 336.928C322.511 336.608 322.874 336.144 323.108 335.536L323.332 336.08C323.108 336.688 322.724 337.173 322.18 337.536C321.647 337.888 320.964 338.064 320.132 338.064ZM329.639 338V330.128L329.863 330.368H326.375V329.648H333.703V330.368H330.215L330.439 330.128V338H329.639ZM336.279 341.168C335.895 341.168 335.533 341.104 335.191 340.976C334.861 340.848 334.578 340.661 334.343 340.416L334.743 339.808C334.957 340.032 335.186 340.197 335.431 340.304C335.687 340.411 335.975 340.464 336.295 340.464C336.679 340.464 337.015 340.357 337.303 340.144C337.602 339.931 337.879 339.541 338.135 338.976L338.711 337.696L338.823 337.552L342.359 329.648H343.175L338.887 339.136C338.663 339.648 338.418 340.048 338.151 340.336C337.895 340.635 337.613 340.848 337.303 340.976C336.994 341.104 336.653 341.168 336.279 341.168ZM338.695 338.208L334.823 329.648H335.671L339.191 337.504L338.695 338.208ZM345.395 338.064C345.214 338.064 345.054 338 344.915 337.872C344.787 337.733 344.723 337.568 344.723 337.376C344.723 337.184 344.787 337.024 344.915 336.896C345.054 336.768 345.214 336.704 345.395 336.704C345.576 336.704 345.731 336.768 345.859 336.896C345.998 337.024 346.067 337.184 346.067 337.376C346.067 337.568 345.998 337.733 345.859 337.872C345.731 338 345.576 338.064 345.395 338.064Z" fill="#192F3F"/>
<defs>
<filter id="filter0_di_958_444" x="37" y="423" width="350" height="64" filterUnits="userSpaceOnUse" color-interpolation-filters="sRGB">
<feFlood flood-opacity="0" result="BackgroundImageFix"/>
<feColorMatrix in="SourceAlpha" type="matrix" values="0 0 0 0 0 0 0 0 0 0 0 0 0 0 0 0 0 0 127 0" result="hardAlpha"/>
<feOffset dx="2" dy="2"/>
<feComposite in2="hardAlpha" operator="out"/>
<feColorMatrix type="matrix" values="0 0 0 0 0 0 0 0 0 0 0 0 0 0 0 0 0 0 0.1 0"/>
<feBlend mode="normal" in2="BackgroundImageFix" result="effect1_dropShadow_958_444"/>
<feBlend mode="normal" in="SourceGraphic" in2="effect1_dropShadow_958_444" result="shape"/>
<feColorMatrix in="SourceAlpha" type="matrix" values="0 0 0 0 0 0 0 0 0 0 0 0 0 0 0 0 0 0 127 0" result="hardAlpha"/>
<feOffset dx="2" dy="2"/>
<feComposite in2="hardAlpha" operator="arithmetic" k2="-1" k3="1"/>
<feColorMatrix type="matrix" values="0 0 0 0 0.176471 0 0 0 0 0.333333 0 0 0 0 0.45098 0 0 0 1 0"/>
<feBlend mode="normal" in2="shape" result="effect2_innerShadow_958_444"/>
</filter>
<linearGradient id="paint0_linear_958_444" x1="206" y1="0" x2="206" y2="520" gradientUnits="userSpaceOnUse">
<stop stop-color="white"/>
<stop offset="1" stop-color="#F7F9FA"/>
</linearGradient>
</defs>
</svg>
